<svg xmlns="http://www.w3.org/2000/svg" xmlns:xlink="http://www.w3.org/1999/xlink" width="150" zoomAndPan="magnify" viewBox="0 0 112.5 44.999999" height="60" preserveAspectRatio="xMidYMid meet" version="1.0"><defs><g/><clipPath id="2f474f1bef"><path d="M 0 0.0976562 L 112.003906 0.0976562 L 112.003906 44.898438 L 0 44.898438 Z M 0 0.0976562 " clip-rule="nonzero"/></clipPath></defs><g clip-path="url(#2f474f1bef)"><path fill="#ffffff" d="M 0 0.0976562 L 112.003906 0.0976562 L 112.003906 44.902344 L 0 44.902344 Z M 0 0.0976562 " fill-opacity="1" fill-rule="nonzero"/><path fill="#ffffff" d="M 0 0.0976562 L 112.003906 0.0976562 L 112.003906 44.902344 L 0 44.902344 Z M 0 0.0976562 " fill-opacity="1" fill-rule="nonzero"/></g><g fill="#000000" fill-opacity="1"><g transform="translate(-1.054395, 32.619712)"><g><path d="M 1.953125 0 L 1.953125 -16.703125 L 7.71875 -16.703125 L 7.71875 -14.953125 L 7.78125 -14.953125 C 9.28125 -16.441406 10.875 -17.1875 12.5625 -17.1875 C 13.78125 -17.1875 14.921875 -16.9375 15.984375 -16.4375 C 17.046875 -15.9375 17.847656 -15.164062 18.390625 -14.125 C 20.085938 -16.164062 21.9375 -17.1875 23.9375 -17.1875 C 25.71875 -17.1875 27.25 -16.6875 28.53125 -15.6875 C 29.8125 -14.695312 30.453125 -13.132812 30.453125 -11 L 30.453125 0 L 24.6875 0 L 24.6875 -9.4375 C 24.6875 -10.332031 24.441406 -11.078125 23.953125 -11.671875 C 23.460938 -12.265625 22.726562 -12.5625 21.75 -12.5625 C 20.90625 -12.5625 20.257812 -12.304688 19.8125 -11.796875 C 19.363281 -11.285156 19.117188 -10.675781 19.078125 -9.96875 L 19.078125 0 L 13.3125 0 L 13.3125 -9.4375 C 13.3125 -10.332031 13.066406 -11.078125 12.578125 -11.671875 C 12.097656 -12.265625 11.367188 -12.5625 10.390625 -12.5625 C 9.492188 -12.5625 8.820312 -12.285156 8.375 -11.734375 C 7.9375 -11.179688 7.71875 -10.523438 7.71875 -9.765625 L 7.71875 0 Z M 1.953125 0 "/></g></g></g><g fill="#000000" fill-opacity="1"><g transform="translate(29.054593, 32.619712)"><g><path d="M 18.859375 -7.546875 L 6.734375 -7.546875 C 6.734375 -6.378906 7.113281 -5.515625 7.875 -4.953125 C 8.632812 -4.390625 9.460938 -4.109375 10.359375 -4.109375 C 11.285156 -4.109375 12.019531 -4.234375 12.5625 -4.484375 C 13.113281 -4.734375 13.734375 -5.222656 14.421875 -5.953125 L 18.59375 -3.875 C 16.851562 -0.96875 13.96875 0.484375 9.9375 0.484375 C 7.414062 0.484375 5.253906 -0.375 3.453125 -2.09375 C 1.648438 -3.820312 0.75 -5.898438 0.75 -8.328125 C 0.75 -10.765625 1.648438 -12.847656 3.453125 -14.578125 C 5.253906 -16.316406 7.414062 -17.1875 9.9375 -17.1875 C 12.582031 -17.1875 14.734375 -16.421875 16.390625 -14.890625 C 18.054688 -13.367188 18.890625 -11.1875 18.890625 -8.34375 C 18.890625 -7.945312 18.878906 -7.679688 18.859375 -7.546875 Z M 6.90625 -10.75 L 13.25 -10.75 C 13.125 -11.613281 12.78125 -12.28125 12.21875 -12.75 C 11.664062 -13.21875 10.957031 -13.453125 10.09375 -13.453125 C 9.132812 -13.453125 8.375 -13.203125 7.8125 -12.703125 C 7.25 -12.203125 6.945312 -11.550781 6.90625 -10.75 Z M 6.90625 -10.75 "/></g></g></g><g fill="#000000" fill-opacity="1"><g transform="translate(46.729266, 32.619712)"><g><path d="M 18.859375 -7.546875 L 6.734375 -7.546875 C 6.734375 -6.378906 7.113281 -5.515625 7.875 -4.953125 C 8.632812 -4.390625 9.460938 -4.109375 10.359375 -4.109375 C 11.285156 -4.109375 12.019531 -4.234375 12.5625 -4.484375 C 13.113281 -4.734375 13.734375 -5.222656 14.421875 -5.953125 L 18.59375 -3.875 C 16.851562 -0.96875 13.96875 0.484375 9.9375 0.484375 C 7.414062 0.484375 5.253906 -0.375 3.453125 -2.09375 C 1.648438 -3.820312 0.75 -5.898438 0.75 -8.328125 C 0.75 -10.765625 1.648438 -12.847656 3.453125 -14.578125 C 5.253906 -16.316406 7.414062 -17.1875 9.9375 -17.1875 C 12.582031 -17.1875 14.734375 -16.421875 16.390625 -14.890625 C 18.054688 -13.367188 18.890625 -11.1875 18.890625 -8.34375 C 18.890625 -7.945312 18.878906 -7.679688 18.859375 -7.546875 Z M 6.90625 -10.75 L 13.25 -10.75 C 13.125 -11.613281 12.78125 -12.28125 12.21875 -12.75 C 11.664062 -13.21875 10.957031 -13.453125 10.09375 -13.453125 C 9.132812 -13.453125 8.375 -13.203125 7.8125 -12.703125 C 7.25 -12.203125 6.945312 -11.550781 6.90625 -10.75 Z M 6.90625 -10.75 "/></g></g></g><g fill="#000000" fill-opacity="1"><g transform="translate(64.403943, 32.619712)"><g><path d="M 2.9375 -16.703125 L 2.9375 -22.921875 L 8.6875 -22.921875 L 8.6875 -16.703125 L 12.203125 -16.703125 L 12.203125 -12.3125 L 8.6875 -12.3125 L 8.6875 -7 C 8.6875 -5.457031 9.125 -4.6875 10 -4.6875 C 10.21875 -4.6875 10.441406 -4.726562 10.671875 -4.8125 C 10.910156 -4.90625 11.097656 -4.992188 11.234375 -5.078125 L 11.421875 -5.203125 L 12.859375 -0.546875 C 11.617188 0.140625 10.207031 0.484375 8.625 0.484375 C 7.539062 0.484375 6.609375 0.296875 5.828125 -0.078125 C 5.046875 -0.460938 4.453125 -0.972656 4.046875 -1.609375 C 3.648438 -2.253906 3.363281 -2.925781 3.1875 -3.625 C 3.019531 -4.332031 2.9375 -5.085938 2.9375 -5.890625 L 2.9375 -12.3125 L 0.515625 -12.3125 L 0.515625 -16.703125 Z M 2.9375 -16.703125 "/></g></g></g><g fill="#2596be" fill-opacity="1"><g transform="translate(75.317111, 32.619712)"><g><path d="M 1.953125 0 L 1.953125 -28 L 7.71875 -28 L 7.71875 0 Z M 1.953125 0 "/></g></g></g><g fill="#2596be" fill-opacity="1"><g transform="translate(83.031308, 32.619712)"><g><path d="M 14.625 -16.703125 L 21.265625 -16.703125 L 8.140625 8.46875 L 1.5 8.46875 L 7.265625 -2.609375 L -0.65625 -16.703125 L 5.984375 -16.703125 L 10.640625 -8.140625 Z M 14.625 -16.703125 "/></g></g></g><g fill="#2596be" fill-opacity="1"><g transform="translate(101.682495, 32.619712)"><g><path d="M 5.671875 -6.96875 C 6.710938 -6.96875 7.59375 -6.601562 8.3125 -5.875 C 9.039062 -5.144531 9.40625 -4.257812 9.40625 -3.21875 C 9.40625 -2.195312 9.039062 -1.320312 8.3125 -0.59375 C 7.59375 0.125 6.710938 0.484375 5.671875 0.484375 C 4.648438 0.484375 3.773438 0.125 3.046875 -0.59375 C 2.316406 -1.320312 1.953125 -2.195312 1.953125 -3.21875 C 1.953125 -4.257812 2.316406 -5.144531 3.046875 -5.875 C 3.773438 -6.601562 4.648438 -6.96875 5.671875 -6.96875 Z M 5.671875 -6.96875 "/></g></g></g></svg>